{
  "accessors": [
    {
      "bufferView": 2,
      "componentType": 5126,
      "count": 65532,
      "max": [
        7.856441974639893,
        7.586435794830322,
        5.837276935577393
      ],
      "min": [
        -4.773900985717773,
        5.982604026794434,
        -1.885172963142395
      ],
      "type": "VEC3"
    },
    {
      "bufferView": 2,
      "byteOffset": 786384,
      "componentType": 5126,
      "count": 65532,
      "max": [
        0.9998878836631775,
        0.999170184135437,
        0.9999741911888123
      ],
      "min": [
        -0.9999304413795471,
        -0.9999995827674866,
        -0.9998862147331238
      ],
      "type": "VEC3"
    },
    {
      "bufferView": 1,
      "componentType": 5126,
      "count": 65532,
      "max": [
        0.9922410249710083,
        1.0000879764556885
      ],
      "min": [
        0.0012069999938830733,
        0.010741000063717365
      ],
      "type": "VEC2"
    },
    {
      "bufferView": 0,
      "componentType": 5125,
      "count": 284196,
      "type": "SCALAR"
    },
    {
      "bufferView": 2,
      "byteOffset": 1572768,
      "componentType": 5126,
      "count": 65532,
      "max": [
        6.073101997375488,
        7.544453144073486,
        6.136932849884033
      ],
      "min": [
        -5.3592329025268555,
        5.899977207183838,
        -1.8998609781265259
      ],
      "type": "VEC3"
    },
    {
      "bufferView": 2,
      "byteOffset": 2359152,
      "componentType": 5126,
      "count": 65532,
      "max": [
        0.9999864101409912,
        0.9707638025283813,
        0.9999513030052185
      ],
      "min": [
        -0.999974250793457,
        -0.9999997019767761,
        -0.9999985694885254
      ],
      "type": "VEC3"
    },
    {
      "bufferView": 1,
      "byteOffset": 524256,
      "componentType": 5126,
      "count": 65532,
      "max": [
        0.9911659955978394,
        0.9935979843139648
      ],
      "min": [
        0.013314999639987946,
        0.0038960000965744257
      ],
      "type": "VEC2"
    },
    {
      "bufferView": 0,
      "byteOffset": 1136784,
      "componentType": 5125,
      "count": 309282,
      "type": "SCALAR"
    },
    {
      "bufferView": 2,
      "byteOffset": 3145536,
      "componentType": 5126,
      "count": 65532,
      "max": [
        5.93417501449585,
        7.694371223449707,
        5.735228061676025
      ],
      "min": [
        -6.081247806549072,
        5.767862796783447,
        -1.646765947341919
      ],
      "type": "VEC3"
    },
    {
      "bufferView": 2,
      "byteOffset": 3931920,
      "componentType": 5126,
      "count": 65532,
      "max": [
        0.9999694228172302,
        0.9914696216583252,
        0.9997541904449463
      ],
      "min": [
        -0.9998140931129456,
        -0.9999984502792358,
        -0.9999775290489197
      ],
      "type": "VEC3"
    },
    {
      "bufferView": 1,
      "byteOffset": 1048512,
      "componentType": 5126,
      "count": 65532,
      "max": [
        0.9898539781570435,
        0.9967600107192993
      ],
      "min": [
        0.0056050000712275505,
        0.0034000000450760126
      ],
      "type": "VEC2"
    },
    {
      "bufferView": 0,
      "byteOffset": 2373912,
      "componentType": 5125,
      "count": 308052,
      "type": "SCALAR"
    },
    {
      "bufferView": 2,
      "byteOffset": 4718304,
      "componentType": 5126,
      "count": 65532,
      "max": [
        5.9194841384887695,
        7.839996814727783,
        5.952566146850586
      ],
      "min": [
        -6.970898151397705,
        5.622466087341309,
        -1.9307849407196045
      ],
      "type": "VEC3"
    },
    {
      "bufferView": 2,
      "byteOffset": 5504688,
      "componentType": 5126,
      "count": 65532,
      "max": [
        0.9999802708625793,
        0.9757193922996521,
        0.999975323677063
      ],
      "min": [
        -0.9999503493309021,
        -0.9999997019767761,
        -0.9999897480010986
      ],
      "type": "VEC3"
    },
    {
      "bufferView": 1,
      "byteOffset": 1572768,
      "componentType": 5126,
      "count": 65532,
      "max": [
        0.992048978805542,
        0.9980000257492065
      ],
      "min": [
        0.0025530001148581505,
        0.0036830001045018435
      ],
      "type": "VEC2"
    },
    {
      "bufferView": 0,
      "byteOffset": 3606120,
      "componentType": 5125,
      "count": 305085,
      "type": "SCALAR"
    },
    {
      "bufferView": 2,
      "byteOffset": 6291072,
      "componentType": 5126,
      "count": 65532,
      "max": [
        6.737955093383789,
        7.7162089347839355,
        6.070617198944092
      ],
      "min": [
        -6.893640995025635,
        5.691621780395508,
        -1.6692479848861694
      ],
      "type": "VEC3"
    },
    {
      "bufferView": 2,
      "byteOffset": 7077456,
      "componentType": 5126,
      "count": 65532,
      "max": [
        0.99979567527771,
        0.9918261170387268,
        0.9999762177467346
      ],
      "min": [
        -0.9999984502792358,
        -0.9999927282333374,
        -0.9999897480010986
      ],
      "type": "VEC3"
    },
    {
      "bufferView": 1,
      "byteOffset": 2097024,
      "componentType": 5126,
      "count": 65532,
      "max": [
        0.9958879947662354,
        0.9979040026664734
      ],
      "min": [
        0.0018850000342354178,
        0.004251000005751848
      ],
      "type": "VEC2"
    },
    {
      "bufferView": 0,
      "byteOffset": 4826460,
      "componentType": 5125,
      "count": 297948,
      "type": "SCALAR"
    },
    {
      "bufferView": 2,
      "byteOffset": 7863840,
      "componentType": 5126,
      "count": 65532,
      "max": [
        7.719459056854248,
        7.640940189361572,
        6.090044021606445
      ],
      "min": [
        -6.894621849060059,
        5.662031173706055,
        -2.0620360374450684
      ],
      "type": "VEC3"
    },
    {
      "bufferView": 2,
      "byteOffset": 8650224,
      "componentType": 5126,
      "count": 65532,
      "max": [
        0.9999694228172302,
        0.9960429072380066,
        0.9999808669090271
      ],
      "min": [
        -0.9999744892120361,
        -0.9999992847442627,
        -0.9999808669090271
      ],
      "type": "VEC3"
    },
    {
      "bufferView": 1,
      "byteOffset": 2621280,
      "componentType": 5126,
      "count": 65532,
      "max": [
        0.9960179924964905,
        0.9998409748077393
      ],
      "min": [
        0.0017320000333711505,
        0.004052999895066023
      ],
      "type": "VEC2"
    },
    {
      "bufferView": 0,
      "byteOffset": 6018252,
      "componentType": 5125,
      "count": 276450,
      "type": "SCALAR"
    },
    {
      "bufferView": 2,
      "byteOffset": 9436608,
      "componentType": 5126,
      "count": 65532,
      "max": [
        7.701458930969238,
        7.679299831390381,
        6.085069179534912
      ],
      "min": [
        -6.878111839294434,
        5.732112884521484,
        -2.0614500045776367
      ],
      "type": "VEC3"
    },
    {
      "bufferView": 2,
      "byteOffset": 10222992,
      "componentType": 5126,
      "count": 65532,
      "max": [
        0.9998984336853027,
        0.9989785552024841,
        0.9999459385871887
      ],
      "min": [
        -0.9997109174728394,
        -0.9999984502792358,
        -0.9999961853027344
      ],
      "type": "VEC3"
    },
    {
      "bufferView": 1,
      "byteOffset": 3145536,
      "componentType": 5126,
      "count": 65532,
      "max": [
        0.994005024433136,
        0.9996370077133179
      ],
      "min": [
        0.0014669999945908785,
        0.0036830001045018435
      ],
      "type": "VEC2"
    },
    {
      "bufferView": 0,
      "byteOffset": 7124052,
      "componentType": 5125,
      "count": 248319,
      "type": "SCALAR"
    },
    {
      "bufferView": 2,
      "byteOffset": 11009376,
      "componentType": 5126,
      "count": 65532,
      "max": [
        6.6523261070251465,
        7.817428112030029,
        6.0312628746032715
      ],
      "min": [
        -6.6698222160339355,
        5.814321041107178,
        -2.1524109840393066
      ],
      "type": "VEC3"
    },
    {
      "bufferView": 2,
      "byteOffset": 11795760,
      "componentType": 5126,
      "count": 65532,
      "max": [
        0.9999393224716187,
        0.9995086789131165,
        0.9999337196350098
      ],
      "min": [
        -0.9999384880065918,
        -0.9999838471412659,
        -0.9999897480010986
      ],
      "type": "VEC3"
    },
    {
      "bufferView": 1,
      "byteOffset": 3669792,
      "componentType": 5126,
      "count": 65532,
      "max": [
        0.9940540194511414,
        0.9995970129966736
      ],
      "min": [
        0.0017470000311732292,
        0.004038000013679266
      ],
      "type": "VEC2"
    },
    {
      "bufferView": 0,
      "byteOffset": 8117328,
      "componentType": 5125,
      "count": 241377,
      "type": "SCALAR"
    },
    {
      "bufferView": 2,
      "byteOffset": 12582144,
      "componentType": 5126,
      "count": 65532,
      "max": [
        7.81357479095459,
        7.984114170074463,
        5.936676979064941
      ],
      "min": [
        -6.795841217041016,
        5.695109844207764,
        -2.218079090118408
      ],
      "type": "VEC3"
    },
    {
      "bufferView": 2,
      "byteOffset": 13368528,
      "componentType": 5126,
      "count": 65532,
      "max": [
        0.9999830722808838,
        0.999556839466095,
        0.9999039769172668
      ],
      "min": [
        -0.9999826550483704,
        -0.999983012676239,
        -0.9999958872795105
      ],
      "type": "VEC3"
    },
    {
      "bufferView": 1,
      "byteOffset": 4194048,
      "componentType": 5126,
      "count": 65532,
      "max": [
        0.9950699806213379,
        1.0018450021743774
      ],
      "min": [
        -0.0011699999449774623,
        0.00393499992787838
      ],
      "type": "VEC2"
    },
    {
      "bufferView": 0,
      "byteOffset": 9082836,
      "componentType": 5125,
      "count": 199149,
      "type": "SCALAR"
    },
    {
      "bufferView": 2,
      "byteOffset": 14154912,
      "componentType": 5126,
      "count": 65534,
      "max": [
        7.708178997039795,
        7.720727920532227,
        6.124874114990234
      ],
      "min": [
        -6.88576078414917,
        5.662080764770508,
        -2.218079090118408
      ],
      "type": "VEC3"
    },
    {
      "bufferView": 2,
      "byteOffset": 14941320,
      "componentType": 5126,
      "count": 65534,
      "max": [
        0.9999802708625793,
        0.9994690418243408,
        0.9999196529388428
      ],
      "min": [
        -0.9999977350234985,
        -0.9999988675117493,
        -0.999981701374054
      ],
      "type": "VEC3"
    },
    {
      "bufferView": 1,
      "byteOffset": 4718304,
      "componentType": 5126,
      "count": 65534,
      "max": [
        0.9960179924964905,
        0.9998949766159058
      ],
      "min": [
        0.00145800004247576,
        0.0038739999290555716
      ],
      "type": "VEC2"
    },
    {
      "bufferView": 0,
      "byteOffset": 9879432,
      "componentType": 5125,
      "count": 196842,
      "type": "SCALAR"
    },
    {
      "bufferView": 2,
      "byteOffset": 15727728,
      "componentType": 5126,
      "count": 65532,
      "max": [
        7.697318077087402,
        7.484241008758545,
        6.149454116821289
      ],
      "min": [
        -6.955694198608398,
        5.630180835723877,
        -2.0350189208984375
      ],
      "type": "VEC3"
    },
    {
      "bufferView": 2,
      "byteOffset": 16514112,
      "componentType": 5126,
      "count": 65532,
      "max": [
        0.9998314380645752,
        0.9999525547027588,
        0.9999196529388428
      ],
      "min": [
        -0.9995719790458679,
        -0.9999992847442627,
        -0.9999806880950928
      ],
      "type": "VEC3"
    },
    {
      "bufferView": 1,
      "byteOffset": 5242576,
      "componentType": 5126,
      "count": 65532,
      "max": [
        0.9955880045890808,
        0.999576985836029
      ],
      "min": [
        0.0013849999522790313,
        0.004383999854326248
      ],
      "type": "VEC2"
    },
    {
      "bufferView": 0,
      "byteOffset": 10666800,
      "componentType": 5125,
      "count": 247677,
      "type": "SCALAR"
    },
    {
      "bufferView": 2,
      "byteOffset": 17300496,
      "componentType": 5126,
      "count": 65532,
      "max": [
        7.69298791885376,
        7.4536309242248535,
        6.150802135467529
      ],
      "min": [
        -6.937685012817383,
        5.597990036010742,
        -1.9716399908065796
      ],
      "type": "VEC3"
    },
    {
      "bufferView": 2,
      "byteOffset": 18086880,
      "componentType": 5126,
      "count": 65532,
      "max": [
        0.9999497532844543,
        0.9997015595436096,
        0.999975323677063
      ],
      "min": [
        -0.9998927712440491,
        -0.999996542930603,
        -0.999937117099762
      ],
      "type": "VEC3"
    },
    {
      "bufferView": 1,
      "byteOffset": 5766832,
      "componentType": 5126,
      "count": 65532,
      "max": [
        0.9954140186309814,
        0.9992979764938354
      ],
      "min": [
        0.001756999990902841,
        0.004013000056147575
      ],
      "type": "VEC2"
    },
    {
      "bufferView": 0,
      "byteOffset": 11657508,
      "componentType": 5125,
      "count": 239235,
      "type": "SCALAR"
    },
    {
      "bufferView": 2,
      "byteOffset": 18873264,
      "componentType": 5126,
      "count": 44936,
      "max": [
        7.845290184020996,
        7.438368797302246,
        6.036241054534912
      ],
      "min": [
        -6.965200901031494,
        5.58076286315918,
        -1.04276704788208
      ],
      "type": "VEC3"
    },
    {
      "bufferView": 2,
      "byteOffset": 19412496,
      "componentType": 5126,
      "count": 44936,
      "max": [
        0.9996101260185242,
        0.9997063875198364,
        0.9998795986175537
      ],
      "min": [
        -0.9996564984321594,
        -0.9999977946281433,
        -0.9997774362564087
      ],
      "type": "VEC3"
    },
    {
      "bufferView": 1,
      "byteOffset": 6291088,
      "componentType": 5126,
      "count": 44936,
      "max": [
        0.9958130121231079,
        0.9998689889907837
      ],
      "min": [
        0.0012799999676644802,
        0.003602999961003661
      ],
      "type": "VEC2"
    },
    {
      "bufferView": 0,
      "byteOffset": 12614448,
      "componentType": 5125,
      "count": 146388,
      "type": "SCALAR"
    }
  ],
  "asset": {
    "extras": {
      "author": "3DandVR (https://sketchfab.com/3DandVR)",
      "license": "CC-BY-4.0 (http://creativecommons.org/licenses/by/4.0/)",
      "source": "https://sketchfab.com/3d-models/stone-wall-nr1-db78ea96a1804e9598fab1021f4f1d89",
      "title": "Stone Wall Nr.1"
    },
    "generator": "Sketchfab-12.68.0",
    "version": "2.0"
  },
  "bufferViews": [
    {
      "buffer": 0,
      "byteLength": 13200000,
      "name": "floatBufferViews",
      "target": 34963
    },
    {
      "buffer": 0,
      "byteLength": 6650576,
      "byteOffset": 13200000,
      "byteStride": 8,
      "name": "floatBufferViews",
      "target": 34962
    },
    {
      "buffer": 0,
      "byteLength": 19951728,
      "byteOffset": 19850576,
      "byteStride": 12,
      "name": "floatBufferViews",
      "target": 34962
    }
  ],
  "buffers": [
    {
      "byteLength": 39802304,
      "uri": "scene.bin"
    }
  ],
  "extensionsUsed": [
    "KHR_materials_unlit"
  ],
  "images": [
    {
      "uri": "textures/Wall_Stone_001_v1.1001_baseColor.jpeg"
    }
  ],
  "materials": [
    {
      "doubleSided": true,
      "extensions": {
        "KHR_materials_unlit": {}
      },
      "name": "Wall_Stone_001_v1.1001",
      "pbrMetallicRoughness": {
        "baseColorTexture": {
          "index": 0
        },
        "metallicFactor": 0.0
      }
    }
  ],
  "meshes": [
    {
      "name": "Object_0",
      "primitives": [
        {
          "attributes": {
            "NORMAL": 1,
            "POSITION": 0,
            "TEXCOORD_0": 2
          },
          "indices": 3,
          "material": 0,
          "mode": 4
        }
      ]
    },
    {
      "name": "Object_1",
      "primitives": [
        {
          "attributes": {
            "NORMAL": 5,
            "POSITION": 4,
            "TEXCOORD_0": 6
          },
          "indices": 7,
          "material": 0,
          "mode": 4
        }
      ]
    },
    {
      "name": "Object_2",
      "primitives": [
        {
          "attributes": {
            "NORMAL": 9,
            "POSITION": 8,
            "TEXCOORD_0": 10
          },
          "indices": 11,
          "material": 0,
          "mode": 4
        }
      ]
    },
    {
      "name": "Object_3",
      "primitives": [
        {
          "attributes": {
            "NORMAL": 13,
            "POSITION": 12,
            "TEXCOORD_0": 14
          },
          "indices": 15,
          "material": 0,
          "mode": 4
        }
      ]
    },
    {
      "name": "Object_4",
      "primitives": [
        {
          "attributes": {
            "NORMAL": 17,
            "POSITION": 16,
            "TEXCOORD_0": 18
          },
          "indices": 19,
          "material": 0,
          "mode": 4
        }
      ]
    },
    {
      "name": "Object_5",
      "primitives": [
        {
          "attributes": {
            "NORMAL": 21,
            "POSITION": 20,
            "TEXCOORD_0": 22
          },
          "indices": 23,
          "material": 0,
          "mode": 4
        }
      ]
    },
    {
      "name": "Object_6",
      "primitives": [
        {
          "attributes": {
            "NORMAL": 25,
            "POSITION": 24,
            "TEXCOORD_0": 26
          },
          "indices": 27,
          "material": 0,
          "mode": 4
        }
      ]
    },
    {
      "name": "Object_7",
      "primitives": [
        {
          "attributes": {
            "NORMAL": 29,
            "POSITION": 28,
            "TEXCOORD_0": 30
          },
          "indices": 31,
          "material": 0,
          "mode": 4
        }
      ]
    },
    {
      "name": "Object_8",
      "primitives": [
        {
          "attributes": {
            "NORMAL": 33,
            "POSITION": 32,
            "TEXCOORD_0": 34
          },
          "indices": 35,
          "material": 0,
          "mode": 4
        }
      ]
    },
    {
      "name": "Object_9",
      "primitives": [
        {
          "attributes": {
            "NORMAL": 37,
            "POSITION": 36,
            "TEXCOORD_0": 38
          },
          "indices": 39,
          "material": 0,
          "mode": 4
        }
      ]
    },
    {
      "name": "Object_10",
      "primitives": [
        {
          "attributes": {
            "NORMAL": 41,
            "POSITION": 40,
            "TEXCOORD_0": 42
          },
          "indices": 43,
          "material": 0,
          "mode": 4
        }
      ]
    },
    {
      "name": "Object_11",
      "primitives": [
        {
          "attributes": {
            "NORMAL": 45,
            "POSITION": 44,
            "TEXCOORD_0": 46
          },
          "indices": 47,
          "material": 0,
          "mode": 4
        }
      ]
    },
    {
      "name": "Object_12",
      "primitives": [
        {
          "attributes": {
            "NORMAL": 49,
            "POSITION": 48,
            "TEXCOORD_0": 50
          },
          "indices": 51,
          "material": 0,
          "mode": 4
        }
      ]
    }
  ],
  "nodes": [
    {
      "children": [
        1
      ],
      "matrix": [
        0.9926479458808899,
        -0.06628153473138812,
        0.10127565264701842,
        0.0,
        0.10105063766241074,
        -0.006747398059814947,
        -0.9948583841323853,
        0.0,
        0.06662409007549286,
        0.9977781176567078,
        2.224186096759135e-16,
        0.0,
        -0.8131210803985596,
        0.07948091626167299,
        -0.07971541583538054,
        1.0
      ],
      "name": "Sketchfab_model"
    },
    {
      "children": [
        2,
        3,
        4,
        5,
        6,
        7,
        8,
        9,
        10,
        11,
        12,
        13,
        14
      ],
      "name": "Wall_Stone_001_v1.obj.cleaner.materialmerger.gles"
    },
    {
      "mesh": 0,
      "name": "Object_2"
    },
    {
      "mesh": 1,
      "name": "Object_3"
    },
    {
      "mesh": 2,
      "name": "Object_4"
    },
    {
      "mesh": 3,
      "name": "Object_5"
    },
    {
      "mesh": 4,
      "name": "Object_6"
    },
    {
      "mesh": 5,
      "name": "Object_7"
    },
    {
      "mesh": 6,
      "name": "Object_8"
    },
    {
      "mesh": 7,
      "name": "Object_9"
    },
    {
      "mesh": 8,
      "name": "Object_10"
    },
    {
      "mesh": 9,
      "name": "Object_11"
    },
    {
      "mesh": 10,
      "name": "Object_12"
    },
    {
      "mesh": 11,
      "name": "Object_13"
    },
    {
      "mesh": 12,
      "name": "Object_14"
    }
  ],
  "samplers": [
    {
      "magFilter": 9729,
      "minFilter": 9987,
      "wrapS": 10497,
      "wrapT": 10497
    }
  ],
  "scene": 0,
  "scenes": [
    {
      "name": "Sketchfab_Scene",
      "nodes": [
        0
      ]
    }
  ],
  "textures": [
    {
      "sampler": 0,
      "source": 0
    }
  ]
}
